<?xml version="1.0" encoding="UTF-8"?>
<!DOCTYPE svg PUBLIC "-//W3C//DTD SVG 1.1//EN" "http://www.w3.org/Graphics/SVG/1.1/DTD/svg11.dtd">
<!-- Creator: CorelDRAW -->
<svg xmlns="http://www.w3.org/2000/svg" xml:space="preserve" width="162.56mm" height="91.44mm" version="1.1" style="shape-rendering:geometricPrecision; text-rendering:geometricPrecision; image-rendering:optimizeQuality; fill-rule:evenodd; clip-rule:evenodd"
viewBox="0 0 16256 9144"
 xmlns:xlink="http://www.w3.org/1999/xlink"
 xmlns:xodm="http://www.corel.com/coreldraw/odm/2003">
 <defs>
  <style type="text/css">
   <![CDATA[
    .fil1 {fill:white}
    .fil0 {fill:#3E4095;fill-rule:nonzero}
   ]]>
  </style>
 </defs>
 <g id="Capa_x0020_1">
  <metadata id="CorelCorpID_0Corel-Layer"/>
  <path class="fil0" d="M11500.65 5827.61c-294.47,-1674.85 -766.95,-4227.78 -3073.51,-3212.65l0.37 0.07 0.42 0 0.39 0 0.43 0.03 0.37 0.07c7.89,0.54 15.59,1.05 23.46,1.81l1.34 0.11 9.4 0.89 2.37 0.28 15.11 1.52 0.37 0.07 13.57 1.63 0.59 0.06 14.9 1.99 12.56 1.84 16.65 2.62 9.94 1.64 0.66 0.11 21.39 3.94 5.9 1.14 0.94 0.2 0.4 0.03 0.35 0.11 0.45 0.13 0.37 0.04 0.37 0.04 0.78 0.17 0.38 0.11 20.5 4.38 0.41 0.1 0.38 0.11 0.37 0.04 0.6 0.15 12.34 2.84 1.96 0.48 13.79 3.34 0.15 -0.01 12.46 3.27 0.63 0.14 13.74 3.68 0.55 0.17 12.44 3.5 0.32 0.05 15.66 4.69 1.74 0.47 8.46 2.62 0.38 0.11 18.77 6.11 7.52 2.45 0.16 0.06 6.91 2.43 19.8 7.04 6 2.23 1.6 0.63 18.81 7.18 0.58 0.22 8.15 3.32 1.16 0.41 15.63 6.5 10.9 4.62 0.14 0.07 15.9 7.09 0.11 -0.03 9.69 4.39 0.19 0.08 1.36 0.6 22.75 10.84 1.25 0.56 11.64 5.88 11.12 5.58 0.32 0.22 13.74 7.25 10.95 5.92 13.35 7.37 11.76 6.68 1.57 0.9 9.46 5.52 0.75 0.45 14.63 8.83 1.43 0.84 7.67 4.67 0.31 0.22 0.75 0.44 0.31 0.19 0.38 0.24 0.34 0.21 18.35 11.74 0.37 0.21 0.63 0.44 0.37 0.2 0.34 0.22 0.32 0.22 0.56 0.42 9.18 6.08 0.69 0.42 12.93 8.72 12.65 8.85 10.29 7.23 1.23 0.91 10.57 7.72 0.7 0.51 11.82 8.86 9.25 7.01 13.84 10.86 1.07 0.86 8.29 6.58 19.8 16.28 0.23 0.24 0.4 0.36 8.09 6.93 1.87 1.65 12.56 10.9 7.87 7.02 13.53 12.34 0.12 0.1 8.24 7.68 0.78 0.73 10.86 10.39 0.86 0.84 9.04 8.8 10.17 10.2 0.32 0.29 0.27 0.29 0.27 0.27 0.32 0.28 0.25 0.33 0.26 0.26 0.27 0.3 0.32 0.22 0.27 0.33 0.32 0.25 0.28 0.32 0.26 0.27 0.27 0.26 0.3 0.32 0.27 0.27 10.92 11.29 0.28 0.33 0.57 0.58 0.26 0.26 0.6 0.58 0.27 0.33 0.26 0.26 0.25 0.34 0.27 0.26 11.01 11.6 8.27 8.98 11.18 12.42 7.55 8.56 0.67 0.79 11.63 13.42 0.51 0.63 6.44 7.65 0.32 0.39 11.82 14.41 6.97 8.64 0.33 0.32 13.42 17.24 3.82 4.95 0.43 0.51 4.62 6.23 12.67 17.1 0.07 0.04 5.47 7.63 0.42 0.59 10.92 15.48 0.13 0.2 7.32 10.65 9.42 13.98 0.27 0.43 6.23 9.44 0.31 0.51 10.46 16.45 0.49 0.77 4.89 7.76 0.23 0.37 0.27 0.43 0.19 0.38 0.29 0.35 0.19 0.38 0.28 0.36 0.21 0.44 0.23 0.37 0.74 1.17 0.2 0.37c3.72,5.95 7.39,12.08 10.96,18.16l0.22 0.34 0.22 0.38 0.27 0.42 0.19 0.38 0.23 0.37 5.11 8.83 10.11 17.67 0.52 0.96 4.94 9 0 0 8.85 16.34 5.74 11.03 0.38 0.56 8.3 16.41 0.53 1.02 4.54 9.09 10.48 21.78 2.24 4.67 0.35 0.86 0.23 0.4 0.19 0.51 0.24 0.41 0.36 0.89 0.21 0.44 10.05 22.31 0.23 0.4 0.22 0.51 0.2 0.4 0.15 0.43 0.22 0.5 0.22 0.47 0.14 0.43 0.23 0.4 0.38 0.83 1.76 4.09 9.62 22.71 0.28 0.65 4.04 10.06 7.29 18.42 4.25 11.12 0.09 0.31 7.03 19.07 3.43 9.39 0.05 0.12 0.1 0.37 0.14 0.39 0.11 0.4 0.18 0.45 0.14 0.36 0.1 0.36 7.24 21.18 0.18 0.42 0.11 0.4 0.14 0.42 0.12 0.43 0.16 0.36 1.33 3.9 0.37 1.22 0.15 0.46 0.18 0.45 8.06 25.69 0.19 0.48 0.25 0.92 0.15 0.46 0.13 0.49 0.14 0.42 0.01 0.07 2.65 9.08 6.01 20.76 0.11 0.2 3.27 11.92 5.19 19.8 2.67 10.56 0.12 0.29 0.04 0.32 0.11 0.4 0.06 0.32 0.09 0.3 0.05 0.38 0.12 0.33 0.05 0.35 0.12 0.33 0.11 0.37 0.03 0.32 0.13 0.33 2.01 8.52 0.04 0.32 0.17 0.68 0.12 0.33 0.11 0.36 0.03 0.32 0.12 0.3 0.05 0.38 0.03 0.32 0.14 0.36 0.04 0.35 0.12 0.3 0.09 0.34 0.05 0.35 0.12 0.33 0.05 0.38 0.06 0.31 0.09 0.31 0.05 0.38 0.13 0.33 0.1 0.37 0.04 0.32 0.12 0.33 0.04 0.35 0.07 0.34 0.11 0.37 0.03 0.32 2.57 10.81 0.04 0.48 0.15 0.45 0.13 0.49 0.09 0.47 0.1 0.5 0.11 0.53c1.91,8.45 3.72,16.98 5.49,25.6l0.11 0.53 0.11 0.43 0.11 0.53 0.04 0.48 0.12 0.46c196.94,886.32 -504.52,1722.74 -1331.37,1652.3 645.85,2772.74 2708.29,2368.1 4551.3,2837.25 0,0 -1136.28,-1457.08 -1291.28,-2338.72z"/>
  <path class="fil1" d="M7837.65 5325.93c-2107.68,-144.07 -245.98,-3990.24 445.44,-4789.59 -7648.77,2116.09 -3771.51,10322.43 2150.99,7479.21 -1817.2,-303.5 -2239.76,-1670.74 -2596.43,-2689.62z"/>
 </g>
</svg>
